<?xml version="1.0" standalone="no"?>
<!DOCTYPE svg PUBLIC "-//W3C//DTD SVG 20010904//EN"
 "http://www.w3.org/TR/2001/REC-SVG-20010904/DTD/svg10.dtd">
<svg version="1.0" xmlns="http://www.w3.org/2000/svg"
 width="700.000000pt" height="700.000000pt" viewBox="0 0 700.000000 700.000000"
 preserveAspectRatio="xMidYMid meet">
<metadata>
Created by potrace 1.14, written by Peter Selinger 2001-2017
</metadata>
<g transform="translate(0.000000,700.000000) scale(0.100000,-0.100000)"
fill="#000000" stroke="none">
<path d="M1830 6834 c-125 -44 -188 -191 -136 -314 31 -74 70 -99 331 -211
l248 -107 -102 -51 c-395 -198 -767 -505 -1027 -845 -51 -68 -148 -208 -179
-261 -16 -27 -37 -63 -47 -80 -71 -119 -172 -341 -224 -490 -52 -148 -121
-433 -139 -575 -21 -167 -27 -299 -21 -485 6 -227 7 -241 37 -420 125 -751
549 -1442 1161 -1890 56 -41 108 -79 113 -83 34 -27 228 -139 323 -186 244
-123 548 -227 662 -228 125 -2 220 98 220 232 0 65 -24 122 -69 166 -38 37
-70 51 -211 94 -382 116 -716 312 -1009 595 -440 425 -711 1003 -756 1615 -10
129 -4 360 10 470 4 25 9 61 11 80 4 31 11 70 29 163 12 62 17 82 50 191 195
644 631 1173 1228 1491 59 31 110 55 113 52 5 -5 -150 -379 -166 -402 -18 -25
-44 -124 -42 -163 2 -47 29 -115 58 -148 94 -104 277 -99 358 9 28 38 461
1044 474 1102 18 85 -13 168 -83 217 -22 15 -272 127 -555 249 -553 237 -574
244 -660 213z"/>
<path d="M4109 6366 c-132 -47 -194 -195 -135 -322 32 -69 81 -107 174 -134
365 -105 620 -233 908 -456 112 -87 311 -284 394 -390 8 -10 29 -37 46 -59 41
-53 154 -222 154 -230 0 -4 9 -19 19 -34 31 -43 109 -204 157 -323 171 -425
222 -923 139 -1363 -21 -111 -21 -110 -44 -200 -73 -286 -232 -622 -396 -837
-11 -14 -31 -41 -45 -59 -170 -223 -429 -455 -675 -604 -85 -51 -287 -156
-293 -151 -2 3 44 114 83 200 122 270 140 320 140 396 0 69 -3 79 -35 128 -43
65 -115 104 -193 104 -63 -1 -146 -40 -181 -86 -14 -19 -94 -193 -177 -388
-83 -194 -159 -371 -169 -393 -92 -206 -130 -308 -130 -347 0 -67 17 -112 60
-160 36 -41 61 -55 267 -143 126 -54 246 -105 268 -115 22 -10 121 -53 220
-95 99 -42 195 -83 212 -91 89 -41 160 -61 206 -58 60 4 140 46 175 92 51 66
60 168 21 243 -29 58 -76 95 -169 135 -47 20 -103 44 -125 54 -22 10 -85 37
-140 60 -55 23 -101 44 -103 45 -2 2 43 27 100 55 216 109 431 252 608 404 80
69 290 288 362 376 65 81 212 292 257 370 301 517 442 1127 397 1725 -4 50 -8
101 -10 115 -6 48 -18 135 -22 155 -2 11 -9 47 -15 80 -16 88 -65 274 -101
379 -144 427 -394 830 -711 1147 -136 135 -196 186 -427 357 -202 149 -593
330 -881 407 -105 28 -138 30 -190 11z"/>
<path d="M3428 4805 c3 -57 2 -65 -15 -66 -10 0 -26 -2 -35 -4 -9 -2 -35 -6
-56 -9 -60 -8 -180 -53 -241 -89 -113 -68 -219 -217 -252 -357 -17 -71 -17
-240 0 -310 41 -168 134 -280 304 -367 77 -40 250 -103 282 -103 13 0 15 -57
15 -436 l0 -436 -37 7 c-64 12 -141 56 -198 113 -77 77 -112 156 -150 335 -7
32 -6 32 -155 3 l-115 -22 -1 -44 c-1 -59 27 -170 62 -245 58 -124 149 -225
255 -283 41 -23 174 -67 229 -76 113 -19 112 -18 110 -65 -1 -20 -2 -79 -1
-131 l1 -95 78 1 77 0 3 137 c1 75 4 137 5 138 1 0 22 2 47 5 346 37 591 310
592 659 1 106 -6 147 -36 236 -62 180 -216 315 -431 377 -38 12 -95 28 -125
36 l-55 15 2 368 c1 202 2 379 3 392 0 20 3 22 27 16 57 -14 135 -60 174 -103
42 -45 81 -122 93 -182 15 -73 1 -68 156 -47 l140 20 -6 36 c-44 241 -192 411
-420 480 -64 20 -97 27 -146 30 -15 1 -18 11 -18 66 l0 65 -82 0 -83 0 3 -65z
m2 -664 l0 -380 -61 21 c-73 25 -172 90 -211 139 -47 59 -67 127 -64 227 2
101 7 119 40 175 52 90 119 141 231 177 33 10 61 19 63 19 1 1 2 -170 2 -378z
m218 -701 c217 -82 300 -179 306 -355 7 -185 -78 -337 -227 -409 -40 -19 -87
-37 -104 -40 l-33 -5 0 414 c0 228 1 415 3 415 1 0 26 -9 55 -20z"/>
</g>
</svg>
